<svg width="148" height="47" viewBox="0 0 148 47" fill="none" xmlns="http://www.w3.org/2000/svg">
<path d="M10.7315 46.64C7.36083 46.64 4.7795 45.68 2.9875 43.76C1.23817 41.84 0.3635 39.1307 0.3635 35.632V11.568C0.3635 8.06933 1.23817 5.36 2.9875 3.44C4.7795 1.52 7.36083 0.559998 10.7315 0.559998C14.1022 0.559998 16.6622 1.52 18.4115 3.44C20.2035 5.36 21.0995 8.06933 21.0995 11.568V16.304H14.4435V11.12C14.4435 8.34667 13.2702 6.96 10.9235 6.96C8.57683 6.96 7.4035 8.34667 7.4035 11.12V36.144C7.4035 38.8747 8.57683 40.24 10.9235 40.24C13.2702 40.24 14.4435 38.8747 14.4435 36.144V29.296H21.0995V35.632C21.0995 39.1307 20.2035 41.84 18.4115 43.76C16.6622 45.68 14.1022 46.64 10.7315 46.64ZM35.6125 46.64C32.1565 46.64 29.5112 45.6587 27.6765 43.696C25.8418 41.7333 24.9245 38.96 24.9245 35.376V11.824C24.9245 8.24 25.8418 5.46666 27.6765 3.504C29.5112 1.54133 32.1565 0.559998 35.6125 0.559998C39.0685 0.559998 41.7138 1.54133 43.5485 3.504C45.3832 5.46666 46.3005 8.24 46.3005 11.824V35.376C46.3005 38.96 45.3832 41.7333 43.5485 43.696C41.7138 45.6587 39.0685 46.64 35.6125 46.64ZM35.6125 40.24C38.0445 40.24 39.2605 38.768 39.2605 35.824V11.376C39.2605 8.432 38.0445 6.96 35.6125 6.96C33.1805 6.96 31.9645 8.432 31.9645 11.376V35.824C31.9645 38.768 33.1805 40.24 35.6125 40.24ZM61.2375 46.64C57.7815 46.64 55.1362 45.6587 53.3015 43.696C51.4668 41.7333 50.5495 38.96 50.5495 35.376V11.824C50.5495 8.24 51.4668 5.46666 53.3015 3.504C55.1362 1.54133 57.7815 0.559998 61.2375 0.559998C64.6935 0.559998 67.3388 1.54133 69.1735 3.504C71.0082 5.46666 71.9255 8.24 71.9255 11.824V35.376C71.9255 38.96 71.0082 41.7333 69.1735 43.696C67.3388 45.6587 64.6935 46.64 61.2375 46.64ZM61.2375 40.24C63.6695 40.24 64.8855 38.768 64.8855 35.824V11.376C64.8855 8.432 63.6695 6.96 61.2375 6.96C58.8055 6.96 57.5895 8.432 57.5895 11.376V35.824C57.5895 38.768 58.8055 40.24 61.2375 40.24ZM76.6865 1.2H83.7265V20.08L92.6865 1.2H99.7265L91.3425 17.648L99.8545 46H92.4945L86.5425 26.032L83.7265 31.728V46H76.6865V1.2ZM103.187 1.2H122.387V7.6H110.227V19.44H119.891V25.84H110.227V39.6H122.387V46H103.187V1.2ZM126.437 1.2H137.189C140.687 1.2 143.311 2.13866 145.061 4.016C146.81 5.89333 147.685 8.64533 147.685 12.272V34.928C147.685 38.5547 146.81 41.3067 145.061 43.184C143.311 45.0613 140.687 46 137.189 46H126.437V1.2ZM137.061 39.6C138.213 39.6 139.087 39.2587 139.685 38.576C140.325 37.8933 140.645 36.784 140.645 35.248V11.952C140.645 10.416 140.325 9.30666 139.685 8.624C139.087 7.94133 138.213 7.6 137.061 7.6H133.477V39.6H137.061Z" fill="white"/>
</svg>
